PathFileType	4	(X/Y/Z)	/home/abdul/Desktop/myosuite/custom_workspace/IK/output/S3_12_2.trc
DataRate	CameraRate	NumFrames	NumMarkers	Units	OrigDataRate	OrigDataStartFrame	OrigNumFrames
200.0	200.0	56	3	mm	200.0	359	955
Frame#	Time	V_Shoulder			V_Elbow			V_Wrist		
		X1	Y1	Z1	X2	Y2	Z2	X3	Y3	Z3

359	1.79	-124.19902745433909	664.08739438803	318.72597031527147	-327.2227700157098	429.2593165598703	132.34812557835102	-101.8750617049705	402.25950080412497	314.6958130698558
360	1.795	-124.20374895935988	664.2063636021281	318.77163411719806	-327.18164513285683	429.0945043081865	132.75667689205	-101.85078066684542	402.7539264272451	315.15271368878166
361	1.8	-124.20688894390146	664.3239623863191	318.8185913784589	-327.1387897969405	428.9288044040225	133.16656291867264	-101.82649334365631	403.2274761958993	315.60831637683305
362	1.805	-124.20843072869381	664.4401405284949	318.8668127910067	-327.09428162422057	428.76233277533686	133.5776326982598	-101.80226786029729	403.6807088451027	316.06272641577743
363	1.81	-124.20836084724101	664.5548483201342	318.91626457645685	-327.0481950172131	428.59520863400735	133.9897131842876	-101.77816750982535	404.1142029855266	316.51601895562646
364	1.815	-124.20666905222161	664.6680367207393	318.9669086211574	-327.0006013985907	428.42755445256205	134.40261001977365	-101.75425079683009	404.5285551806438	316.9682395394713
365	1.82	-124.20334831414378	664.7796575212606	319.01870262435403	-326.951569462571	428.25949593160556	134.81610839165575	-101.73057150052813	404.92437798085916	317.41940472529836
366	1.825	-124.19839481238148	664.8896635059764	319.07160025884	-326.901165441519	428.09116195732463	135.2299739589259	-101.70717875690664	405.3022979214493	317.86950280194316
367	1.83	-124.19180791873634	664.998008612317	319.125551343435	-326.849453385397	427.92268454853524	135.64395384969197	-101.6841171591893	405.66295349115063	318.318494595963
368	1.835	-124.1835901736883	665.1046480881199	319.18050202659487	-326.79649545162204	427.7541987928138	136.05777772205528	-101.66142687584752	406.00699307823083	318.76631436583443
369	1.84	-124.17374725551606	665.2095386458219	319.2363949804199	-326.7423522028357	427.5858427713441	136.47115888343734	-101.63914378533154	406.33507290083054	319.21287077952104
370	1.845	-124.16228794248326	665.3126386131015	319.2931696042922	-326.6870829100459	427.4177574721954	136.88379546276065	-101.61729962664677	406.64785492828827	319.658047971105
371	1.85	-124.14922406830316	665.4139080795009	319.3507622373424	-326.6307458585768	427.25008669183603	137.29537162969325	-101.59592216485345	406.94600480005323	320.1017066718414
372	1.855	-124.13457047110766	665.513309038571	319.4091063789191	-326.5733986542572	427.0829769247781	137.7055588550013	-101.57503537052068	407.2301897486532	320.54368541066776
373	1.86	-124.11834493616006	665.6108055250974	319.46813291620873	-326.5150985272835	426.9165772413317	138.11401720592156	-101.5546596121194	407.50107653302325	320.9838017789024
374	1.865	-124.10056813256313	665.7063637469832	319.52777035813295	-326.45590263122614	426.75103915354003	138.52039667036738	-101.53481186029424	407.75932938831215	321.4218537535711
375	1.87	-124.08126354422502	665.799952211386	319.5879450746348	-326.39586833468854	426.58651646944617	138.9243385037151	-101.51550590290961	408.00560799807	321.85762107354145
376	1.875	-124.0604573953558	665.8915418447151	319.6485815404503	-326.3350535031926	426.4231651359295	139.3254765918861	-101.49675256972391	408.24056549449216	322.2908666623939
377	1.88	-124.0381785707749	665.9811061061313	319.70960258245333	-326.273516768944	426.261143070426	139.72343882444179	-101.47855996550454	408.46484649214176	322.72133809174136
378	1.885	-124.01445853131968	666.0686210941909	319.77092962965656	-326.2113177862238	426.1006099819252	140.11784847144386	-101.46093371035963	408.6790851603088	323.1487690785076
379	1.89	-123.98933122464933	666.1540656463188	319.83248296494753	-326.14851747026864	425.94172718170495	140.50832555789987	-101.44387718602651	408.8839033388868	323.5728810095085
380	1.895	-123.96283299174615	666.2374214307979	319.8941819776434	-326.08517821762416	425.78465738433545	140.8944882297151	-101.42739178682623	409.0799087023578	323.9933844865343
381	1.9	-123.93500246941845	666.3186730309959	319.9559454159518	-326.02136410609967	425.6295644995432	141.27595410520286	-101.41147717396552	409.2676929761835	324.40998088501954
382	1.905	-123.90588048911462	666.3978080215718	320.01769163843693	-325.95714107260505	425.4766134155846	141.65234160636777	-101.39613153184536	409.44783020959653	324.82236391930076
383	1.91	-123.87550997235898	666.4748170364193	320.07933886360064	-325.8925770673187	425.32596977482723	142.02327126436705	-101.38135182501718	409.62087510848505	325.2302212074107
384	1.915	-123.84393582312138	666.5496938281412	320.14080541670825	-325.8277421828107	425.1777997422838	142.3883669937734	-101.36713405441554	409.7873614317573	325.63323582833686
385	1.92	-123.81120481743325	666.6224353188564	320.202009973007	-325.7627087569326	425.0322697678821	142.74725733050667	-101.35347351149048	409.94780045427626	326.0310878646819
386	1.925	-123.77736549056179	666.6930416421786	320.262871796511	-325.69755144848125	424.88954634328667	143.09957662857096	-101.34036502886333	410.1026794991517	326.423455923709
387	1.93	-123.74246802205238	666.7615161762188	320.3233109735514	-325.6323472848451	424.7497957541161	143.44496621102184	-101.3278032261374	410.25246054189176	326.81001862983254
388	1.935	-123.7065641189472	666.8278655674975	320.38324864032455	-325.5671756810482	424.61318382841864	143.783075470901	-101.31578274950952	410.3975788886312	327.1904560817253
389	1.94	-123.66970689748382	666.8920997456654	320.44260720369954	-325.50211842981923	424.47987568228444	144.11356291820175	-101.30429850385205	410.53844193038253	327.564451267358
390	1.945	-123.63195076357452	666.9542319289641	320.5013105545864	-325.43725966252464	424.35003546348366	144.4360971692734	-101.29334587596416	410.6754279749949	327.93169143046214
391	1.95	-123.59335129236115	667.0142786203777	320.55928427320345	-325.37268578101975	424.2238260940168	144.75035787542987	-101.28292094773069	410.8088851582572	328.2918693821206
392	1.955	-123.55396510713577	667.07225959445	320.6164558256238	-325.3084853606843	424.1014090124663	145.05603658789462	-101.27302069797253	410.9391304353512	328.6446847514269
393	1.96	-123.51384975791008	667.1281978747669	320.67275475102343	-325.24474902511946	423.98294391702854	145.3528375565927	-101.26364319182764	411.066448653636	328.9898451694312
394	1.965	-123.47306359991093	667.1821197021249	320.7281128391001	-325.1815692931888	423.86858851009026	145.64047846068075	-101.25478775656353	411.19109170754746	329.3270673808907
395	1.97	-123.43166567227037	667.2340544934306	320.78246429717694	-325.1190403992881	423.75849824520014	145.9186910690948	-101.24645514279285	411.31327777620345	329.6560782786736
396	1.975	-123.38971557717234	667.2840347914022	320.83574590655707	-325.057258087923	423.65282607725874	146.18722182978223	-101.2386476701407	411.43319064413777	329.9766158560235
397	1.98	-123.34727335970861	667.3320962051583	320.88789716774045	-324.9963193838558	423.5517222167283	146.44583238667138	-101.23136935649768	411.55097910542986	330.28843007227727
398	1.985	-123.30439938868881	667.3782773418105	320.9388604341685	-324.9363223392645	423.4553338886308	146.69430002381668	-101.22462603008407	411.6667564513582	330.5912836280321
399	1.99	-123.261154238639	667.4226197291943	320.988581034213	-324.87736575951647	423.3638050970696	146.93241803653515	-101.21842542364783	411.78060004158294	330.8849526461933
400	1.995	-123.21759857321565	667.4651677298933	321.0370073811758	-324.81954890931644	423.2772763959768	147.1599960297209	-101.21277725022381	411.8925509587546	331.16922725577837
401	2.0	-123.1737930302508	667.5059684467375	321.08409107112084	-324.7629712011264	423.19588466674503	147.37686014388467	-101.20769325998957	412.00261374635534	331.44391207582413
402	2.005	-123.12979810863503	667.545071619972	321.12978696841003	-324.7077318678819	423.11976290336463	147.582853209815	-101.20318727786649	412.1107562294975	331.70882659722497
403	2.01	-123.08567405723507	667.5825295163185	321.1740532788676	-324.65392962214	423.0490400056444	147.77783483309315	-101.19927522163292	412.2169094183398	331.9638054608273
404	2.015	-123.04148076603254	667.6183968101709	321.216851610549	-324.60166230388984	422.9838405810484	147.96168141001434	-101.1959751004359	412.32096749372624	332.2086986306124
405	2.02	-122.99727765966016	667.6527304571817	321.25814702214126	-324.5510265193367	422.92428475563935	148.13428607677048	-101.19330699371093	412.42278787460987	332.4433714613141
406	2.025	-122.95312359350184	667.685589560523	321.29790805906924	-324.5021172730333	422.8704879945702	148.2955585940352	-101.19129301064413	412.52219136678775	332.6677046603422
407	2.03	-122.90907675251283	667.7170352301201	321.3361067774347	-324.4550275957765	422.8225609325225	148.44542516935638	-101.18995723043602	412.61896239244703	332.8815941444039
408	2.035	-122.8651945529063	667.7471304351751	321.3727187559578	-324.40984817071717	422.780609214444	148.58382822000618	-101.18932562375221	412.7128493000004	333.0849507917435
409	2.04	-122.82153354684216	667.7759398503177	321.40772309613914	-324.3666669601421	422.74473334689185	148.7107260791603	-101.18942595587023	412.80356475367415	333.2777000914423
410	2.045	-122.77814933024491	667.8035296957346	321.4411024109018	-324.32556883538086	422.7150285602445	148.8260926484786	-101.19028767215542	412.89078620229685	333.45978169174174
411	2.05	-122.73509645386686	667.8299675716518	321.47284280201615	-324.28663521226554	422.6915846820004	148.92991700033414	-101.19194176661927	412.97415642672695	333.6311488498618
412	2.055	-122.69242833770403	667.8553222875535	321.50293382664637	-324.24994369453384	422.6744860213403	149.02220293309162	-101.19442063443054	413.05328416534235	333.79176778629244
413	2.06	-122.65019718886238	667.8796636865428	321.5313684533996	-324.215567727506	422.66381126508605	149.10296848296338	-101.19775790936365	413.1277448170016	333.94161694702274
414	2.065	-122.60845392296318	667.9030624652618	321.5581430082862	-324.18357626429884	422.6596333851528	149.17224539607625	-101.20198828727655	413.19708122087025	334.0806861776498
